<?xml version="1.0" encoding="UTF-8"?>
<svg id="_레이어_2" data-name="레이어 2" xmlns="http://www.w3.org/2000/svg" viewBox="0 0 80 80">
  <defs>
    <style>
      .cls-1 {
        fill: #35894a;
      }
    </style>
  </defs>
  <path class="cls-1" d="M61.25,27.41v3.35c0,1.09-0.89,1.97-1.99,1.97h-3.39c-1.78,0-2.66-2.12-1.41-3.36l3.39-3.35c1.26-1.24,3.4-0.36,3.4,1.39Z"/>
  <rect class="cls-1" x="53.25" y="34.81" width="8" height="20.84" rx="2.43" ry="2.43"/>
  <path class="cls-1" d="M41.34,44.02c-1.28,5.1-8.85,6.86-13.26,1.7-0.19-0.22-0.46-0.38-0.63-0.63-4.09-5.79-0.94-11.98,4.18-13.26,1.17-0.3,1.95-1.4,1.95-2.61v-2.36c0-2.02-1.54-3.28-3.19-2.95-10.74,2.18-17.58,15.1-8.78,27.06,0.17,0.22,0.39,0.39,0.59,0.59,10.55,10.32,24.89,4.44,27.06-6.3,0.34-1.65-0.93-3.19-2.61-3.19-0.89,0-1.86,0-2.7,0-1.21,0-2.31,0.78-2.61,1.95Z"/>
  <path class="cls-1" d="M50.06,37.6c0,1.18-0.96,2.14-2.14,2.14h-3.82c-0.79,0-1.43-0.64-1.43-1.43l-0.16-5.7c0-0.88-1.12-1.59-1.99-1.59h-2.9c-0.79,0-1.43-0.64-1.43-1.43v-5.15c0-0.79,0.64-1.43,1.43-1.43h14.72c1.9,0,2.86,2.3,1.53,3.66l-3.76,4.06-0.04,6.89Z"/>
</svg> 