<?xml version="1.0" encoding="UTF-8"?>
<svg id="_레이어_2" data-name="레이어 2" xmlns="http://www.w3.org/2000/svg" viewBox="0 0 100 100">
  <defs>
    <style>
      .cls-1 {
        fill: #35894a;
      }
    </style>
  </defs>
  <path class="cls-1" d="M76.56,34.26v4.19c0,1.36-1.11,2.46-2.49,2.46h-4.24c-2.22,0-3.33-2.65-1.76-4.2l4.24-4.19c1.57-1.55,4.25-.45,4.25,1.74Z"/>
  <rect class="cls-1" x="66.56" y="43.51" width="10" height="26.05" rx="3.04" ry="3.04"/>
  <path class="cls-1" d="M51.68,55.03c-1.6,6.38-11.06,8.57-16.57,2.12-.24-.28-.57-.48-.79-.79-5.11-7.24-1.17-14.97,5.22-16.57,1.46-.37,2.44-1.75,2.44-3.26v-2.95c0-2.53-1.93-4.1-3.99-3.69-13.43,2.72-21.97,18.88-10.98,33.83.21.28.49.49.74.74,13.19,12.9,31.11,5.55,33.83-7.88.42-2.06-1.16-3.99-3.26-3.99-1.11,0-2.32,0-3.38,0-1.51,0-2.89.98-3.26,2.44Z"/>
  <path class="cls-1" d="M62.58,47c0,1.48-1.2,2.68-2.68,2.68h-4.77c-.99,0-1.79-.8-1.79-1.79l-.2-7.13c0-1.1-1.4-1.99-2.49-1.99h-3.63c-.99,0-1.79-.8-1.79-1.79v-6.44c0-.99.8-1.79,1.79-1.79h18.4c2.38,0,3.58,2.87,1.91,4.57l-4.7,5.08-.05,8.61Z"/>
</svg>